<mxfile host="app.diagrams.net" modified="2023-05-30T22:46:51.798Z" agent="Mozilla/5.0 (Windows NT 10.0; Win64; x64) AppleWebKit/537.36 (KHTML, like Gecko) Chrome/113.0.0.0 Safari/537.36" etag="q_8XcKNkGD2jkvxUXChf" version="21.3.5" type="device">
  <diagram name="Page-1" id="AO3PzVxPkSk40unCkHxe">
    <mxGraphModel dx="2074" dy="1067" grid="1" gridSize="10" guides="1" tooltips="1" connect="1" arrows="1" fold="1" page="1" pageScale="1" pageWidth="827" pageHeight="1169" math="0" shadow="0">
      <root>
        <mxCell id="0" />
        <mxCell id="1" parent="0" />
        <mxCell id="DPbfkmQDcSMVqxTIG8kD-4" value="True" style="edgeStyle=orthogonalEdgeStyle;rounded=0;orthogonalLoop=1;jettySize=auto;html=1;exitX=0.5;exitY=1;exitDx=0;exitDy=0;entryX=0.5;entryY=0;entryDx=0;entryDy=0;" parent="1" source="DPbfkmQDcSMVqxTIG8kD-2" target="DPbfkmQDcSMVqxTIG8kD-3" edge="1">
          <mxGeometry relative="1" as="geometry" />
        </mxCell>
        <mxCell id="DPbfkmQDcSMVqxTIG8kD-2" value="&lt;b&gt;Initialize&lt;/b&gt;: NULL" style="rounded=0;whiteSpace=wrap;html=1;" parent="1" vertex="1">
          <mxGeometry x="340" y="90" width="200" height="100" as="geometry" />
        </mxCell>
        <mxCell id="DPbfkmQDcSMVqxTIG8kD-3" value="&lt;div&gt;degree = vector&amp;lt;int&amp;gt;(number_of_tasks + 1, 0)&lt;/div&gt;&lt;div&gt;&amp;nbsp; &amp;nbsp; visited = vector&amp;lt;bool&amp;gt;(number_of_tasks + 1, false)&lt;/div&gt;&lt;div&gt;&amp;nbsp; &amp;nbsp; visited[first] = true&lt;/div&gt;&lt;div&gt;&lt;div&gt;cout &amp;lt;&amp;lt; accumulate(time_.begin(), time_.end(), 1) &amp;lt;&amp;lt; endl&lt;/div&gt;&lt;div&gt;&amp;nbsp; &amp;nbsp; cout &amp;lt;&amp;lt; first &amp;lt;&amp;lt; endl&lt;br&gt;i = 0&lt;br&gt;&lt;/div&gt;&lt;/div&gt;" style="rounded=0;whiteSpace=wrap;html=1;" parent="1" vertex="1">
          <mxGeometry x="260" y="280" width="360" height="100" as="geometry" />
        </mxCell>
        <mxCell id="DPbfkmQDcSMVqxTIG8kD-9" value="(am_I_a_bottleneck(n))" style="edgeStyle=orthogonalEdgeStyle;rounded=0;orthogonalLoop=1;jettySize=auto;html=1;exitX=0;exitY=0.5;exitDx=0;exitDy=0;" parent="1" target="DPbfkmQDcSMVqxTIG8kD-7" edge="1">
          <mxGeometry relative="1" as="geometry">
            <mxPoint x="340" y="520" as="sourcePoint" />
          </mxGeometry>
        </mxCell>
        <mxCell id="DPbfkmQDcSMVqxTIG8kD-16" value="~(i &amp;lt; childs[first].size(); ++i)" style="edgeStyle=orthogonalEdgeStyle;rounded=0;orthogonalLoop=1;jettySize=auto;html=1;entryX=0.5;entryY=0;entryDx=0;entryDy=0;exitX=0;exitY=0.5;exitDx=0;exitDy=0;" parent="1" source="DPbfkmQDcSMVqxTIG8kD-29" target="DPbfkmQDcSMVqxTIG8kD-15" edge="1">
          <mxGeometry relative="1" as="geometry" />
        </mxCell>
        <mxCell id="DPbfkmQDcSMVqxTIG8kD-17" value="(i &amp;lt; childs[first].size(); ++)" style="edgeStyle=orthogonalEdgeStyle;rounded=0;orthogonalLoop=1;jettySize=auto;html=1;exitX=0.5;exitY=1;exitDx=0;exitDy=0;entryX=0.5;entryY=0;entryDx=0;entryDy=0;" parent="1" source="DPbfkmQDcSMVqxTIG8kD-29" target="hV4vW9XtLeFimX2zIImt-4" edge="1">
          <mxGeometry x="0.0263" relative="1" as="geometry">
            <Array as="points" />
            <mxPoint as="offset" />
          </mxGeometry>
        </mxCell>
        <mxCell id="DPbfkmQDcSMVqxTIG8kD-30" value="True" style="edgeStyle=orthogonalEdgeStyle;rounded=0;orthogonalLoop=1;jettySize=auto;html=1;entryX=0.5;entryY=0;entryDx=0;entryDy=0;exitX=0.5;exitY=1;exitDx=0;exitDy=0;" parent="1" source="DPbfkmQDcSMVqxTIG8kD-3" target="DPbfkmQDcSMVqxTIG8kD-29" edge="1">
          <mxGeometry relative="1" as="geometry">
            <mxPoint x="200" y="650" as="sourcePoint" />
          </mxGeometry>
        </mxCell>
        <mxCell id="DPbfkmQDcSMVqxTIG8kD-23" value="degree[childs[first][i]] == (int)parents[childs[first][i]].size()" style="edgeStyle=orthogonalEdgeStyle;rounded=0;orthogonalLoop=1;jettySize=auto;html=1;exitX=0.5;exitY=1;exitDx=0;exitDy=0;entryX=0.5;entryY=0;entryDx=0;entryDy=0;" parent="1" source="DPbfkmQDcSMVqxTIG8kD-14" target="DPbfkmQDcSMVqxTIG8kD-22" edge="1">
          <mxGeometry relative="1" as="geometry" />
        </mxCell>
        <mxCell id="DPbfkmQDcSMVqxTIG8kD-26" value="~degree[childs[first][i]] == (int)parents[childs[first][i]].size()" style="edgeStyle=orthogonalEdgeStyle;rounded=0;orthogonalLoop=1;jettySize=auto;html=1;entryX=1;entryY=0.5;entryDx=0;entryDy=0;exitX=0.5;exitY=0;exitDx=0;exitDy=0;" parent="1" source="DPbfkmQDcSMVqxTIG8kD-14" edge="1" target="DPbfkmQDcSMVqxTIG8kD-29">
          <mxGeometry x="-0.1852" relative="1" as="geometry">
            <mxPoint x="540" y="690" as="targetPoint" />
            <Array as="points">
              <mxPoint x="700" y="530" />
            </Array>
            <mxPoint as="offset" />
          </mxGeometry>
        </mxCell>
        <mxCell id="DPbfkmQDcSMVqxTIG8kD-14" value="NULL" style="rounded=0;whiteSpace=wrap;html=1;" parent="1" vertex="1">
          <mxGeometry x="600" y="640" width="200" height="100" as="geometry" />
        </mxCell>
        <mxCell id="DPbfkmQDcSMVqxTIG8kD-21" value="True" style="edgeStyle=orthogonalEdgeStyle;rounded=0;orthogonalLoop=1;jettySize=auto;html=1;entryX=0.5;entryY=0;entryDx=0;entryDy=0;" parent="1" source="DPbfkmQDcSMVqxTIG8kD-15" target="DPbfkmQDcSMVqxTIG8kD-20" edge="1">
          <mxGeometry relative="1" as="geometry" />
        </mxCell>
        <mxCell id="DPbfkmQDcSMVqxTIG8kD-15" value="print_childs(pq.top())" style="rounded=0;whiteSpace=wrap;html=1;" parent="1" vertex="1">
          <mxGeometry x="80" y="640" width="200" height="100" as="geometry" />
        </mxCell>
        <mxCell id="DPbfkmQDcSMVqxTIG8kD-20" value="return" style="rounded=0;whiteSpace=wrap;html=1;" parent="1" vertex="1">
          <mxGeometry x="80" y="840" width="200" height="100" as="geometry" />
        </mxCell>
        <mxCell id="DPbfkmQDcSMVqxTIG8kD-31" value="True" style="edgeStyle=orthogonalEdgeStyle;rounded=0;orthogonalLoop=1;jettySize=auto;html=1;exitX=1;exitY=0.5;exitDx=0;exitDy=0;entryX=0.999;entryY=0.15;entryDx=0;entryDy=0;entryPerimeter=0;" parent="1" source="DPbfkmQDcSMVqxTIG8kD-22" target="DPbfkmQDcSMVqxTIG8kD-29" edge="1">
          <mxGeometry x="-0.2039" relative="1" as="geometry">
            <Array as="points">
              <mxPoint x="880" y="900" />
              <mxPoint x="880" y="490" />
              <mxPoint x="540" y="490" />
            </Array>
            <mxPoint as="offset" />
          </mxGeometry>
        </mxCell>
        <mxCell id="DPbfkmQDcSMVqxTIG8kD-22" value="pq.push(childs[first][i])" style="rounded=0;whiteSpace=wrap;html=1;" parent="1" vertex="1">
          <mxGeometry x="600" y="850" width="200" height="100" as="geometry" />
        </mxCell>
        <mxCell id="DPbfkmQDcSMVqxTIG8kD-29" value="NULL" style="rounded=0;whiteSpace=wrap;html=1;" parent="1" vertex="1">
          <mxGeometry x="340" y="480" width="200" height="100" as="geometry" />
        </mxCell>
        <mxCell id="DPbfkmQDcSMVqxTIG8kD-38" value="1" style="ellipse;whiteSpace=wrap;html=1;fillColor=#050505;fontColor=#FFFFFF;" parent="1" vertex="1">
          <mxGeometry x="510" y="90" width="30" height="30" as="geometry" />
        </mxCell>
        <mxCell id="DPbfkmQDcSMVqxTIG8kD-52" value="2" style="ellipse;whiteSpace=wrap;html=1;fillColor=#050505;fontColor=#FFFFFF;" parent="1" vertex="1">
          <mxGeometry x="590" y="280" width="30" height="30" as="geometry" />
        </mxCell>
        <mxCell id="DPbfkmQDcSMVqxTIG8kD-53" value="3" style="ellipse;whiteSpace=wrap;html=1;fillColor=#050505;fontColor=#FFFFFF;" parent="1" vertex="1">
          <mxGeometry x="510" y="480" width="30" height="30" as="geometry" />
        </mxCell>
        <mxCell id="DPbfkmQDcSMVqxTIG8kD-56" value="4" style="ellipse;whiteSpace=wrap;html=1;fillColor=#050505;fontColor=#FFFFFF;" parent="1" vertex="1">
          <mxGeometry x="250" y="640" width="30" height="30" as="geometry" />
        </mxCell>
        <mxCell id="DPbfkmQDcSMVqxTIG8kD-57" value="5" style="ellipse;whiteSpace=wrap;html=1;fillColor=#050505;fontColor=#FFFFFF;" parent="1" vertex="1">
          <mxGeometry x="250" y="840" width="30" height="30" as="geometry" />
        </mxCell>
        <mxCell id="DPbfkmQDcSMVqxTIG8kD-60" value="7" style="ellipse;whiteSpace=wrap;html=1;fillColor=#050505;fontColor=#FFFFFF;" parent="1" vertex="1">
          <mxGeometry x="770" y="640" width="30" height="30" as="geometry" />
        </mxCell>
        <mxCell id="hV4vW9XtLeFimX2zIImt-5" value="True" style="edgeStyle=orthogonalEdgeStyle;rounded=0;orthogonalLoop=1;jettySize=auto;html=1;exitX=1;exitY=0.5;exitDx=0;exitDy=0;entryX=0;entryY=0.5;entryDx=0;entryDy=0;" edge="1" parent="1" source="hV4vW9XtLeFimX2zIImt-4" target="DPbfkmQDcSMVqxTIG8kD-14">
          <mxGeometry relative="1" as="geometry" />
        </mxCell>
        <mxCell id="hV4vW9XtLeFimX2zIImt-4" value="degree[childs[first][i]]++" style="rounded=0;whiteSpace=wrap;html=1;" vertex="1" parent="1">
          <mxGeometry x="340" y="640" width="200" height="100" as="geometry" />
        </mxCell>
        <mxCell id="DPbfkmQDcSMVqxTIG8kD-58" value="6" style="ellipse;whiteSpace=wrap;html=1;fillColor=#050505;fontColor=#FFFFFF;" parent="1" vertex="1">
          <mxGeometry x="510" y="640" width="30" height="30" as="geometry" />
        </mxCell>
        <mxCell id="hV4vW9XtLeFimX2zIImt-6" value="8" style="ellipse;whiteSpace=wrap;html=1;fillColor=#050505;fontColor=#FFFFFF;" vertex="1" parent="1">
          <mxGeometry x="770" y="850" width="30" height="30" as="geometry" />
        </mxCell>
      </root>
    </mxGraphModel>
  </diagram>
</mxfile>
